<?xml version="1.0" standalone="no"?>
<!DOCTYPE svg PUBLIC "-//W3C//DTD SVG 20010904//EN"
 "http://www.w3.org/TR/2001/REC-SVG-20010904/DTD/svg10.dtd">
<svg version="1.0" xmlns="http://www.w3.org/2000/svg"
 width="200.000000pt" height="200.000000pt" viewBox="0 0 200.000000 200.000000"
 preserveAspectRatio="xMidYMid meet">

<g transform="translate(0.000000,200.000000) scale(0.100000,-0.100000)"
fill="#000000" stroke="none">
<path d="M0 1000 l0 -1000 1000 0 1000 0 0 1000 0 1000 -1000 0 -1000 0 0
-1000z m278 193 c-10 -2 -28 -2 -40 0 -13 2 -5 4 17 4 22 1 32 -1 23 -4z m61
-27 c13 -14 21 -31 18 -38 -4 -9 -6 -8 -6 4 -1 9 -13 26 -27 37 -15 12 -22 21
-17 21 5 0 20 -11 32 -24z m-179 -1 c-14 -8 -29 -14 -35 -14 -5 0 1 6 15 14
14 8 30 14 35 14 6 0 -1 -6 -15 -14z m710 6 c-23 -4 -39 -14 -47 -31 -7 -14
-13 -19 -13 -11 0 26 32 51 64 50 l31 -2 -35 -6z m162 -28 c15 -15 28 -31 28
-36 0 -5 -10 3 -21 17 -12 15 -31 32 -43 36 -12 5 -15 9 -7 9 8 1 28 -11 43
-26z m-532 -8 c19 -22 8 -25 -12 -3 -10 10 -14 18 -9 18 5 0 14 -7 21 -15z
m513 -13 c10 -9 17 -29 17 -52 0 -50 -25 -77 -80 -87 -44 -9 -45 -9 -44 -48 1
-26 8 -44 23 -56 33 -27 25 -34 -38 -34 l-59 0 16 30 c20 35 22 208 4 242 -6
11 -8 23 -5 27 12 11 148 -6 166 -22z m-891 -49 c-5 -7 -8 5 -9 30 -1 38 0 39
8 13 4 -16 5 -35 1 -43z m1153 57 c3 -5 27 -11 53 -12 46 -1 46 -1 8 -5 -22
-3 -49 0 -60 6 -12 5 -30 12 -41 14 -15 4 -13 5 7 6 15 0 30 -3 33 -9z m-103
-12 c-7 -7 -12 -29 -12 -50 0 -35 -2 -38 -27 -37 -24 2 -25 2 -5 6 17 3 22 11
22 37 0 28 14 56 29 56 3 0 0 -5 -7 -12z m255 6 c-3 -3 -12 -4 -19 -1 -8 3 -5
6 6 6 11 1 17 -2 13 -5z m38 -5 c11 -16 1 -19 -13 -3 -7 8 -8 14 -3 14 5 0 13
-5 16 -11z m-625 -54 c0 -33 -1 -34 -32 -28 -44 8 -51 17 -10 11 33 -5 34 -4
30 28 -2 18 0 30 4 28 4 -3 8 -21 8 -39z m410 41 c0 -2 -7 -17 -15 -32 -19
-37 -19 -63 0 -70 19 -8 19 -24 0 -24 -19 0 -37 -35 -33 -63 3 -19 7 -17 28
18 22 36 25 37 28 18 4 -30 -34 -98 -64 -114 -34 -18 -45 -3 -33 46 5 22 12
78 15 125 3 47 11 88 18 92 11 8 56 11 56 4z m-716 -58 c7 -5 5 -8 -6 -8 -13
0 -18 7 -17 28 1 21 2 22 6 7 3 -11 10 -23 17 -27z m-182 0 c-8 -8 -9 -4 -5
13 4 13 8 18 11 10 2 -7 -1 -18 -6 -23z m83 2 c-3 -5 -12 -10 -18 -10 -7 0 -6
4 3 10 19 12 23 12 15 0z m-328 -22 c-3 -8 -6 -5 -6 6 -1 11 2 17 5 13 3 -3 4
-12 1 -19z m1350 -10 c-3 -7 -5 -2 -5 12 0 14 2 19 5 13 2 -7 2 -19 0 -25z
m-1060 16 c-3 -3 -12 -4 -19 -1 -8 3 -5 6 6 6 11 1 17 -2 13 -5z m360 0 c-3
-3 -12 -4 -19 -1 -8 3 -5 6 6 6 11 1 17 -2 13 -5z m343 -10 c0 -8 -19 -13 -24
-6 -3 5 1 9 9 9 8 0 15 -2 15 -3z m-639 -14 c22 -12 26 -50 5 -50 -8 0 -17 6
-19 13 -4 9 -8 8 -16 -3 -8 -12 -12 -10 -19 10 -14 36 10 50 49 30z m349 8 c8
-50 9 -127 2 -132 -5 -3 -7 6 -4 22 5 24 4 26 -12 13 -14 -12 -16 -12 -10 3 3
9 1 30 -6 46 -13 31 -7 50 16 50 8 0 14 -1 14 -2z m-164 -19 c4 -8 9 -8 17 0
17 17 65 13 75 -6 5 -10 12 -44 14 -75 4 -48 2 -58 -11 -59 -100 -8 -151 -5
-156 10 -6 13 -9 106 -6 134 2 11 59 8 67 -4z m424 -4 c10 -12 15 -12 35 1 19
12 28 13 45 4 33 -18 21 -46 -18 -42 -32 2 -32 2 -32 -46 0 -26 5 -53 12 -60
9 -9 2 -12 -32 -12 -36 1 -41 3 -27 11 21 13 23 83 2 119 -8 14 -14 28 -15 33
0 12 17 8 30 -8z m-220 -15 c0 -5 -5 -10 -11 -10 -5 0 -7 5 -4 10 3 6 8 10 11
10 2 0 4 -4 4 -10z m-420 -104 c4 -4 11 1 15 13 7 22 35 29 35 9 0 -19 -31
-48 -52 -48 -15 0 -18 7 -17 48 2 33 3 38 6 17 3 -16 8 -34 13 -39z m1020 -11
c0 -28 -33 -58 -57 -52 -16 4 -15 5 3 6 44 2 58 48 27 85 -18 21 -18 21 5 2
12 -11 22 -29 22 -41z m-1343 13 c-3 -8 -6 -5 -6 6 -1 11 2 17 5 13 3 -3 4
-12 1 -19z m1311 -11 c4 -20 -25 -34 -39 -20 -14 14 1 45 20 41 9 -2 17 -11
19 -21z m-623 -27 c-3 -5 -18 -9 -33 -9 l-27 1 30 8 c17 4 31 8 33 9 2 0 0 -3
-3 -9z m566 -7 c13 -16 12 -17 -3 -4 -17 13 -22 21 -14 21 2 0 10 -8 17 -17z
m-818 -10 c-23 -2 -64 -2 -90 0 -26 2 -7 3 42 3 50 0 71 -1 48 -3z m104 1 c-3
-3 -12 -4 -19 -1 -8 3 -5 6 6 6 11 1 17 -2 13 -5z m194 -12 c-13 -2 -27 0 -32
5 -6 6 3 7 23 4 28 -4 29 -6 9 -9z m179 8 c-8 -5 -24 -9 -35 -9 -16 1 -16 2 5
9 35 11 48 11 30 0z m-837 -7 c-7 -2 -19 -2 -25 0 -7 3 -2 5 12 5 14 0 19 -2
13 -5z m74 1 c-3 -3 -12 -4 -19 -1 -8 3 -5 6 6 6 11 1 17 -2 13 -5z m696 -1
c-7 -2 -19 -2 -25 0 -7 3 -2 5 12 5 14 0 19 -2 13 -5z m114 1 c-3 -3 -12 -4
-19 -1 -8 3 -5 6 6 6 11 1 17 -2 13 -5z m60 0 c-3 -3 -12 -4 -19 -1 -8 3 -5 6
6 6 11 1 17 -2 13 -5z m84 -12 c-30 -2 -58 0 -62 5 -4 4 20 6 54 3 l62 -5 -54
-3z"/>
<path d="M909 1096 c-3 -3 -3 -21 -1 -41 3 -28 8 -35 26 -35 34 0 58 23 54 51
-2 20 -9 25 -38 27 -20 2 -38 1 -41 -2z"/>
<path d="M663 935 c0 -27 2 -38 4 -22 2 15 2 37 0 50 -2 12 -4 0 -4 -28z"/>
<path d="M594 956 c-10 -26 0 -71 16 -71 10 0 16 13 18 43 2 33 0 42 -13 42
-8 0 -18 -6 -21 -14z"/>
<path d="M680 931 c0 -42 16 -63 31 -40 5 8 9 29 9 47 0 25 -4 32 -20 32 -17
0 -20 -7 -20 -39z"/>
</g>
</svg>
